<svg xmlns="http://www.w3.org/2000/svg" viewBox="0 0 512 512">
  <defs>
    <linearGradient id="bg" x1="0" y1="0" x2="1" y2="1">
      <stop offset="0" stop-color="#4f8cff"/>
      <stop offset="1" stop-color="#7c5cff"/>
    </linearGradient>
  </defs>
  <rect width="512" height="512" rx="112" fill="url(#bg)"/>
  <path fill="#ffffff" d="M384 300H160c-44 0-80-36-80-80 0-40 30-73 68-79 10-56 59-99 118-99 51 0 95 32 112 78 4-1 7-1 11-1 44 0 80 36 80 80s-36 101-85 101z" opacity=".97"/>
  <polygon fill="#ffc800" points="300,160 205,310 258,310 226,442 342,262 282,262 322,160" stroke="#1a1030" stroke-width="16" stroke-linejoin="round"/>
</svg>
